<?xml version="1.0" standalone="no"?>
<!DOCTYPE svg PUBLIC "-//W3C//DTD SVG 20010904//EN"
 "http://www.w3.org/TR/2001/REC-SVG-20010904/DTD/svg10.dtd">
<svg version="1.0" xmlns="http://www.w3.org/2000/svg"
 width="1024.000000pt" height="1024.000000pt" viewBox="0 0 1024.000000 1024.000000"
 preserveAspectRatio="xMidYMid meet">
<metadata>
Created by potrace 1.14, written by Peter Selinger 2001-2017
</metadata>
<g transform="translate(0.000000,1024.000000) scale(0.100000,-0.100000)"
fill="#000000" stroke="none">
<path d="M9845 7067 c-20 -13 -258 -127 -345 -165 -209 -92 -385 -163 -725
-291 -388 -147 -1200 -384 -1495 -437 -14 -2 -74 -15 -135 -29 -60 -13 -123
-26 -140 -29 -109 -20 -256 -46 -290 -51 -22 -3 -47 -7 -55 -10 -8 -2 -37 -6
-65 -10 -27 -3 -77 -10 -110 -16 -75 -14 -126 -14 -134 -1 -16 26 -288 212
-466 319 -271 163 -418 212 -516 173 -42 -17 -114 -64 -152 -99 l-28 -26 -112
58 -112 58 -40 -16 c-22 -10 -64 -28 -93 -41 -29 -13 -55 -24 -57 -24 -4 0
-39 -15 -140 -61 -11 -5 -149 -65 -307 -132 -175 -76 -284 -127 -278 -133 5
-5 6 -35 3 -67 l-6 -58 -51 6 c-28 3 -78 7 -111 10 -60 5 -114 10 -222 21 -32
3 -83 8 -113 10 -30 2 -71 6 -90 8 -19 3 -60 8 -90 11 -30 3 -71 8 -90 10 -19
3 -53 7 -75 10 -74 8 -120 14 -155 20 -19 2 -56 7 -82 10 -26 3 -62 7 -80 10
-18 3 -112 16 -209 30 -97 13 -182 27 -190 29 -8 3 -39 7 -69 10 -30 3 -80 10
-110 16 -30 6 -75 13 -100 16 -25 2 -52 7 -60 9 -8 3 -33 7 -55 10 -22 4 -47
8 -55 10 -8 2 -28 6 -45 9 -49 8 -208 36 -235 41 -14 3 -74 14 -135 25 -60 12
-155 30 -210 42 -55 11 -111 22 -125 24 -14 2 -36 7 -50 10 -14 3 -36 8 -50
10 -27 5 -193 41 -350 76 -52 11 -131 29 -175 40 -44 11 -89 22 -100 24 -34 7
-56 12 -185 44 -69 17 -133 33 -143 35 -9 2 -21 6 -26 9 -5 4 -27 -12 -48 -34
-111 -118 -164 -317 -159 -600 4 -214 33 -335 101 -424 47 -61 200 -120 525
-201 112 -28 290 -67 365 -80 17 -3 37 -8 45 -10 17 -5 49 -11 135 -25 33 -5
71 -12 85 -15 38 -7 329 -55 425 -69 27 -4 101 -15 150 -22 22 -3 51 -7 65 -9
14 -2 48 -6 75 -10 28 -3 60 -7 72 -9 12 -3 46 -7 75 -11 29 -3 67 -7 83 -9
17 -2 57 -7 90 -11 33 -3 71 -8 85 -10 14 -2 56 -6 94 -10 39 -3 71 -7 73 -9
4 -4 -474 -269 -494 -274 -7 -2 -13 -8 -13 -13 0 -5 -5 -9 -10 -9 -6 0 -122
-64 -258 -142 -136 -77 -267 -152 -292 -166 -25 -14 -57 -33 -72 -43 -14 -11
-28 -19 -31 -19 -3 0 -78 -43 -168 -96 -90 -53 -177 -104 -194 -114 -16 -9
-111 -65 -210 -124 -99 -59 -189 -113 -200 -119 -11 -7 -39 -24 -62 -39 -23
-16 -44 -28 -48 -28 -3 0 -21 -10 -40 -23 l-34 -23 32 -34 c18 -19 47 -53 66
-75 120 -142 390 -416 496 -503 126 -103 176 -108 326 -31 116 60 441 246 609
349 8 5 95 57 193 117 98 59 219 134 270 165 51 32 101 62 112 67 11 6 56 32
100 60 111 69 617 370 690 411 33 18 83 45 110 60 28 15 109 58 180 97 111 60
246 131 528 277 45 23 62 28 75 20 9 -6 28 -17 42 -25 14 -8 32 -20 41 -26 19
-16 249 -163 254 -163 1 0 33 -18 70 -41 67 -40 164 -88 220 -107 70 -24 85
-23 143 8 l58 31 104 -53 c144 -73 241 -106 272 -91 13 6 57 21 98 33 163 46
402 141 570 224 199 100 270 160 270 230 0 17 3 41 6 53 6 21 9 20 117 -29
151 -67 747 -321 1207 -513 804 -337 998 -423 1118 -499 23 -14 44 -26 47 -26
9 0 262 -162 360 -230 107 -75 235 -173 327 -253 l68 -58 82 62 c283 213 476
405 531 529 11 25 20 66 20 91 1 58 -28 95 -129 169 -41 30 -74 59 -74 65 0
13 -154 97 -162 89 -3 -3 -23 5 -44 17 -84 47 -428 219 -594 296 -184 86 -537
243 -545 243 -2 0 -29 11 -59 25 -58 27 -450 188 -501 206 -16 6 -39 15 -50
19 -20 8 -88 33 -178 66 -50 18 -70 34 -41 34 34 0 310 69 549 137 581 166
1158 410 1470 624 109 74 149 141 179 299 14 73 15 335 2 405 -6 31 -11 60
-22 130 -11 70 -55 209 -79 251 -30 51 -71 67 -110 41z"/>
</g>
</svg>
